<svg width="46" height="46" viewBox="0 0 46 46" fill="none" xmlns="http://www.w3.org/2000/svg">
<path fill-rule="evenodd" clip-rule="evenodd" d="M22 4H36C39.3137 4 42 6.68629 42 10V36C42 39.3137 39.3137 42 36 42H22C18.6863 42 16 39.3137 16 36V34H12V36C12 41.5228 16.4772 46 22 46H36C41.5228 46 46 41.5228 46 36V10C46 4.47715 41.5228 0 36 0H22C16.4772 0 12 4.47715 12 10V12H16V10C16 6.68629 18.6863 4 22 4Z" fill="#434343"/>
<line x1="11.5" y1="22.5" x2="24.5" y2="22.5" stroke="#434343" stroke-width="7" stroke-linecap="round"/>
<path d="M0 23L12 14.3397L12 31.6603L0 23Z" fill="#434343"/>
</svg>
